<?xml version="1.0" encoding="utf-8"?>
<!-- Generator: Adobe Illustrator 25.3.1, SVG Export Plug-In . SVG Version: 6.00 Build 0)  -->
<svg version="1.1" id="Слой_1" xmlns="http://www.w3.org/2000/svg" xmlns:xlink="http://www.w3.org/1999/xlink" x="0px" y="0px"
	 viewBox="0 0 28 28" style="enable-background:new 0 0 28 28;" xml:space="preserve">
<style type="text/css">
	.st0{fill:#FFFFFF;}
</style>
<path class="st0" d="M14,4c0,0-0.1,0-0.1,0c-2.1,0-4.1,0.4-5.9,1.1l0.1,0C6.3,5.7,4.8,6.7,3.6,8l0,0c-1,1-1.6,2.4-1.6,4v0
	c0,1.3,0.4,2.4,1.1,3.4l0,0C4,16.5,5,17.4,6.2,18.1l0,0l1.4,0.8l-0.4,1.5c-0.3,1-0.6,1.9-1.1,2.7l0-0.1c1.7-0.7,3.1-1.6,4.3-2.7l0,0
	l0.7-0.6l0.9,0.1c0.6,0.1,1.3,0.1,2,0.1h0c0,0,0.1,0,0.1,0c2.1,0,4.1-0.4,5.9-1.1l-0.1,0c1.7-0.6,3.2-1.6,4.4-2.9l0,0
	c1-1,1.6-2.4,1.6-4s-0.6-3-1.6-4l0,0c-1.2-1.3-2.7-2.3-4.3-2.9l-0.1,0C18.2,4.4,16.2,4,14.1,4C14.1,4,14,4,14,4L14,4L14,4z M28,12
	c0,1.9-0.7,3.7-1.9,5l0,0c-1.3,1.6-3.1,2.8-5,3.6l-0.1,0c-2,0.8-4.4,1.3-6.8,1.3c-0.1,0-0.1,0-0.2,0h0c-0.8,0-1.6,0-2.4-0.1l0.1,0
	c-2,1.8-4.4,3.1-7.1,3.8l-0.1,0C4,25.8,3.4,25.9,2.8,26l-0.1,0H2.7c-0.2,0-0.3-0.1-0.4-0.2c-0.1-0.1-0.2-0.3-0.2-0.4l0,0v0
	c0,0,0-0.1,0-0.1c0,0,0-0.1,0-0.1l0,0c0,0,0-0.1,0-0.2c0,0,0,0,0,0c0,0,0-0.1,0.1-0.1l0.1-0.1l0.1-0.1l0.1-0.1
	c0.1-0.1,0.2-0.3,0.5-0.5l0.5-0.6c0.1-0.1,0.3-0.3,0.5-0.6c0.2-0.2,0.3-0.5,0.5-0.8l0,0c0.1-0.2,0.3-0.5,0.4-0.9
	c0.1-0.3,0.3-0.7,0.4-1.1l0-0.1c-1.6-0.9-2.9-2-3.8-3.4l0,0C0.5,15.2,0,13.6,0,12v0c0-1.9,0.7-3.7,1.9-5l0,0c1.3-1.6,3.1-2.8,5-3.6
	l0.1,0C9,2.5,11.3,2,13.8,2c0.1,0,0.1,0,0.2,0h0c0.1,0,0.1,0,0.2,0c2.5,0,4.8,0.5,7,1.4l-0.1,0c2,0.8,3.7,2,5.1,3.6l0,0
	C27.3,8.3,28,10.1,28,12L28,12L28,12z"/>
</svg>
