<?xml version="1.0" standalone="no"?>
<!DOCTYPE svg PUBLIC "-//W3C//DTD SVG 20010904//EN"
 "http://www.w3.org/TR/2001/REC-SVG-20010904/DTD/svg10.dtd">
<svg version="1.0" xmlns="http://www.w3.org/2000/svg"
 width="512.000000pt" height="512.000000pt" viewBox="0 0 512.000000 512.000000"
 preserveAspectRatio="xMidYMid meet">
<metadata>
Created by potrace 1.14, written by Peter Selinger 2001-2017
</metadata>
<g transform="translate(0.000000,512.000000) scale(0.100000,-0.100000)"
fill="#000000" stroke="none">
<path d="M2505 5008 c-16 -6 -32 -14 -35 -17 -3 -3 -19 -13 -35 -22 -45 -23
-79 -43 -85 -49 -3 -3 -26 -17 -52 -30 -27 -14 -48 -29 -48 -33 0 -5 -4 -5
-10 -2 -5 3 -10 3 -10 -2 0 -4 -15 -14 -32 -22 -18 -8 -51 -26 -73 -40 -53
-34 -114 -68 -147 -83 -16 -7 -28 -16 -28 -20 0 -4 -7 -8 -15 -8 -9 0 -18 -7
-21 -15 -4 -8 -11 -12 -16 -9 -6 4 -13 3 -17 -2 -9 -13 -41 -32 -73 -45 -16
-6 -28 -15 -28 -20 0 -5 -5 -9 -11 -9 -6 0 -23 -9 -37 -19 -15 -10 -31 -20
-37 -21 -5 -2 -26 -13 -45 -25 -19 -12 -45 -25 -57 -29 -13 -4 -23 -11 -23
-15 0 -4 -22 -18 -50 -31 -27 -13 -50 -27 -50 -32 0 -4 -7 -8 -15 -8 -8 0 -15
-5 -15 -11 0 -5 -4 -8 -9 -5 -4 3 -19 -3 -31 -14 -12 -11 -27 -17 -31 -14 -5
3 -9 1 -9 -4 0 -5 -8 -12 -17 -15 -20 -6 -75 -38 -83 -48 -3 -3 -22 -14 -42
-24 -21 -9 -38 -22 -38 -27 0 -5 -4 -6 -10 -3 -5 3 -10 1 -10 -6 0 -7 -3 -9
-7 -6 -3 4 -15 0 -25 -10 -10 -9 -18 -13 -18 -9 0 4 -10 -2 -22 -13 -11 -11
-25 -18 -30 -15 -4 3 -8 0 -8 -5 0 -6 -7 -11 -15 -11 -9 0 -18 -7 -21 -15 -4
-8 -9 -13 -13 -10 -4 2 -24 -7 -44 -21 -20 -14 -37 -21 -37 -17 0 4 -4 3 -8
-3 -4 -6 -27 -22 -52 -36 -81 -45 -175 -101 -180 -107 -3 -3 -12 -7 -20 -9 -8
-2 -16 -8 -18 -13 -2 -5 -10 -9 -17 -9 -8 0 -20 -6 -27 -13 -7 -7 -28 -19 -45
-26 -18 -7 -33 -17 -33 -22 0 -5 -6 -9 -14 -9 -24 0 -68 -51 -80 -93 -9 -31
-11 -336 -10 -1207 1 -641 5 -1174 7 -1185 3 -11 6 -23 6 -27 2 -13 66 -68 98
-83 18 -9 35 -20 38 -25 4 -6 11 -8 16 -5 5 4 9 2 9 -3 0 -5 8 -12 17 -15 10
-4 36 -18 58 -31 22 -14 59 -35 82 -47 24 -12 43 -25 43 -29 0 -4 11 -11 25
-14 14 -4 34 -14 45 -24 12 -9 23 -15 27 -14 3 2 9 0 12 -5 9 -14 121 -76 121
-67 0 4 8 -3 19 -14 10 -12 26 -22 35 -22 9 0 16 -4 16 -10 0 -5 11 -12 25
-16 14 -3 25 -9 25 -13 0 -4 16 -13 35 -21 19 -8 35 -17 35 -22 0 -4 6 -8 14
-8 7 0 19 -7 26 -15 7 -8 16 -13 20 -10 5 3 10 2 12 -2 4 -10 57 -42 81 -50 9
-3 17 -9 17 -14 0 -5 9 -9 20 -9 11 0 20 -4 20 -10 0 -5 6 -10 14 -10 7 0 19
-7 26 -15 7 -8 16 -13 20 -10 4 2 15 -3 23 -13 9 -10 32 -24 52 -32 19 -8 35
-17 35 -22 0 -4 6 -8 14 -8 7 0 19 -7 26 -15 7 -8 16 -12 21 -9 5 3 9 0 9 -5
0 -6 7 -11 15 -11 8 0 15 -4 15 -10 0 -5 9 -10 20 -10 11 0 20 -4 20 -10 0 -5
7 -10 15 -10 8 0 15 -4 15 -10 0 -5 5 -10 10 -10 11 0 171 -90 180 -101 3 -3
20 -12 38 -20 17 -8 32 -17 32 -20 0 -6 23 -15 44 -17 5 0 12 -5 15 -10 3 -5
22 -19 42 -30 76 -42 84 -47 89 -52 3 -3 26 -17 53 -30 26 -14 47 -29 47 -33
0 -5 4 -6 9 -2 5 3 12 1 16 -5 4 -6 11 -7 17 -4 6 4 8 2 4 -4 -6 -10 17 -23
38 -21 5 0 13 -6 18 -15 5 -9 15 -16 22 -16 8 0 19 -7 26 -15 6 -8 15 -14 18
-13 4 1 20 -4 35 -10 16 -7 43 -10 61 -8 31 4 94 31 106 45 3 3 28 18 57 32
29 15 49 29 46 33 -4 3 1 6 11 6 10 0 24 7 33 15 8 8 19 13 24 10 5 -4 9 -1 9
5 0 6 5 8 10 5 6 -3 10 -2 10 3 0 5 12 15 28 22 15 8 39 23 55 33 15 10 27 15
27 10 0 -4 4 -3 8 3 7 11 128 84 139 84 4 0 14 6 22 14 9 7 36 24 61 37 25 13
48 29 52 34 5 7 8 7 8 0 0 -6 3 -6 8 1 4 6 38 28 77 50 38 21 78 44 87 49 9 6
35 20 57 32 72 40 86 48 91 53 3 3 18 11 33 18 15 7 25 17 22 22 -3 5 0 7 9 4
8 -3 24 4 35 15 13 13 21 16 21 9 0 -9 3 -10 8 -2 10 15 113 80 140 88 12 4
22 12 22 17 0 6 4 8 9 5 4 -3 19 3 31 14 13 11 29 20 37 20 7 0 13 5 13 10 0
6 5 10 11 10 6 0 23 9 39 20 15 11 30 17 34 13 3 -3 6 -1 6 5 0 11 38 28 55
23 5 -1 6 1 2 5 -7 8 18 24 91 59 17 8 32 20 32 27 0 6 3 9 6 5 3 -3 24 5 45
19 21 13 43 24 49 24 5 0 10 5 10 11 0 5 5 7 10 4 6 -3 10 -1 10 4 0 6 7 11
15 11 8 0 15 4 15 9 0 5 14 12 30 16 17 4 30 11 30 16 0 5 7 9 15 9 8 0 15 4
15 9 0 5 14 14 30 20 17 5 30 15 30 20 0 6 3 10 8 9 11 -3 71 31 93 53 11 11
25 32 31 47 14 34 18 2402 4 2402 -5 0 -6 3 -3 7 4 3 2 12 -4 20 -6 7 -8 13
-5 13 4 0 -6 12 -22 28 -27 25 -54 42 -179 108 -29 15 -50 31 -47 36 3 5 2 8
-3 7 -8 -3 -64 21 -73 31 -3 3 -18 12 -35 20 -16 8 -32 17 -35 21 -3 3 -22 13
-42 22 -21 10 -38 22 -38 27 0 6 -9 10 -19 10 -11 0 -22 4 -26 9 -3 6 -18 16
-33 24 -72 38 -197 112 -200 119 -2 4 -9 8 -16 8 -6 0 -35 15 -64 34 -28 19
-52 32 -52 29 0 -3 -8 0 -17 8 -10 8 -30 21 -45 29 -16 7 -28 17 -28 22 0 5
-4 7 -9 4 -5 -3 -19 2 -32 12 -13 10 -31 21 -39 25 -8 3 -37 20 -65 37 -27 17
-62 36 -77 42 -16 7 -28 16 -28 20 0 4 -7 8 -15 8 -8 0 -15 5 -15 11 0 5 -4 8
-9 4 -5 -3 -12 -1 -16 4 -3 5 -18 16 -33 24 -46 23 -77 42 -83 50 -3 5 -9 8
-13 8 -7 -1 -17 4 -168 93 -43 25 -82 46 -88 46 -5 0 -10 3 -10 8 0 4 -10 12
-23 18 -60 30 -112 60 -115 67 -2 4 -10 7 -17 7 -7 0 -15 5 -17 11 -2 5 -10
11 -18 13 -22 4 -80 40 -80 49 0 5 -4 6 -10 2 -5 -3 -19 4 -30 15 -11 11 -25
18 -30 15 -6 -4 -10 -2 -10 3 0 13 -74 42 -103 41 -12 0 -35 -5 -52 -11z"/>
</g>
</svg>
